# xmcd CD database file
#
# Track frame offsets:
#	150
#	31436
#	58123
#	97471
#	123570
#	144828
#	150741
#	168866
#	200061
#	233300
#	259153
#	282885
#	301731
#
# Disc length: 4393 seconds
#
# Revision: 0
# Processed by: cddbd v1.5.2PL0 Copyright (c) Steve Scherf et al.
# Submitted via: CDex 1.70beta2
#
DISCID=b211270d
DTITLE=Jeff Kaiser - 13 Themes For A Triskaidekaphobic
DYEAR=2003
DGENRE=Jazz
TTITLE0=My Uncle Toby's Apologetical Oration
TTITLE1=Gravity Was An Errant Scoundrel
TTITLE2=This Sweet Fountain Of Science
TTITLE3=The Curate's Folly Betwixt Them
TTITLE4=Devout, Venerable, Hoary-Headed Man, Meekly Holding Up A Box
TTITLE5=The Stranger's Nose Was No More Heard Of
TTITLE6=Uncle Toby Understood The Nature Of A Parabola
TTITLE7=The Accusing Spirit Which Flew Up To Heaven's Chancery
TTITLE8=A Thousand Of My Father's Most Subtle Syllogisms
TTITLE9=His Life Was Put In Jeopardy By Words
TTITLE10=The Heat And Impatience Of His Thirst
TTITLE11=Nothing But The Fermentation
TTITLE12=I Wish My Uncle Toby Had Been A Water Drinker
EXTD=YEAR: 2003
EXTT0=
EXTT1=
EXTT2=
EXTT3=
EXTT4=
EXTT5=
EXTT6=
EXTT7=
EXTT8=
EXTT9=
EXTT10=
EXTT11=
EXTT12=
PLAYORDER=
